<svg width="21" height="20" viewBox="0 0 21 20" fill="none" xmlns="http://www.w3.org/2000/svg">
<path fill-rule="evenodd" clip-rule="evenodd" d="M16 18C16.2761 18 16.5 17.7762 16.5 17.5V8.37824C16.5 8.23736 16.4406 8.10302 16.3363 8.00825L10.8363 3.00876C10.6456 2.8354 10.3544 2.8354 10.1637 3.00875L4.66368 8.00825C4.55943 8.10302 4.5 8.23736 4.5 8.37824V17.5C4.5 17.7762 4.72386 18 5 18H16ZM17.5 20H3.5C3.23478 20 2.98043 19.8947 2.79289 19.7071C2.60536 19.5196 2.5 19.2653 2.5 19V10.5C2.5 10.2239 2.27614 10 2 10H0.793322C0.336304 10 0.11882 9.43749 0.456989 9.13007L9.827 0.612042C10.0111 0.44452 10.2511 0.351685 10.5 0.351685C10.7489 0.351685 10.9889 0.44452 11.173 0.612042L20.543 9.13007C20.8812 9.43749 20.6637 10 20.2067 10H19C18.7239 10 18.5 10.2239 18.5 10.5V19C18.5 19.2653 18.3946 19.5196 18.2071 19.7071C18.0196 19.8947 17.7652 20 17.5 20Z" fill="url(#paint0_linear_2537_18)"/>
<path d="M6.5 13.5C6.5 13.2239 6.7254 12.9958 6.99771 13.0416C7.60873 13.1444 8.17742 13.4348 8.62132 13.8787C9.06522 14.3226 9.35564 14.8913 9.45844 15.5023C9.50425 15.7746 9.27614 16 9 16H7C6.72386 16 6.5 15.7762 6.5 15.5V13.5Z" fill="url(#paint1_linear_2537_18)"/>
<path d="M6.5 9.50004C6.5 9.2239 6.72417 8.99818 6.99961 9.01788C8.67352 9.13759 10.2553 9.8558 11.4497 11.0503C12.6442 12.2448 13.3625 13.8265 13.4822 15.5004C13.5019 15.7759 13.2761 16 13 16H12C11.7239 16 11.5026 15.7756 11.475 15.5009C11.3604 14.3581 10.8548 13.2838 10.0355 12.4645C9.21626 11.6452 8.14194 11.1396 6.99919 11.025C6.72442 10.9974 6.5 10.7762 6.5 10.5V9.50004Z" fill="url(#paint2_linear_2537_18)"/>
<defs>
<linearGradient id="paint0_linear_2537_18" x1="-0.5" y1="0.351685" x2="31.0246" y2="20.4463" gradientUnits="userSpaceOnUse">
<stop stop-color="#FF3A44"/>
<stop offset="1" stop-color="#FF8086"/>
</linearGradient>
<linearGradient id="paint1_linear_2537_18" x1="-0.5" y1="0.351685" x2="31.0246" y2="20.4463" gradientUnits="userSpaceOnUse">
<stop stop-color="#FF3A44"/>
<stop offset="1" stop-color="#FF8086"/>
</linearGradient>
<linearGradient id="paint2_linear_2537_18" x1="-0.5" y1="0.351685" x2="31.0246" y2="20.4463" gradientUnits="userSpaceOnUse">
<stop stop-color="#FF3A44"/>
<stop offset="1" stop-color="#FF8086"/>
</linearGradient>
</defs>
</svg>
